<?xml version="1.0" encoding="UTF-8"?>
<!-- Generator: Adobe Illustrator 26.0.2, SVG Export Plug-In . SVG Version: 6.00 Build 0)  -->
<svg version="1.1" xmlns="http://www.w3.org/2000/svg" xmlns:xlink="http://www.w3.org/1999/xlink" x="0px" y="0px" viewBox="0 0 595.3 143.9" style="enable-background:new 0 0 595.3 143.9;" xml:space="preserve">
<style type="text/css">
	.st0{opacity:0.12;}
	.st1{fill:#FFFFFF;}
</style>
<g id="Layer_2">
</g>
<g id="Layer_3">
</g>
<g id="Layer_1">
	<g id="Layer_2_00000026130590475689775880000000112907098083451302_">
		<g id="Layer_1_00000174591343313283320310000018259980999979391367_" class="st0">
		</g>
	</g>
	<g>
		<g id="Layer_1_00000023960521270117858470000006976113686061180830_">
			<g id="Layer_2_00000081634460065244903320000014693957921490261897_">
			</g>
			<g id="Layer_1_00000010994102893149321440000012034940009232492464_">
				<g>
					<path class="st1" d="M141.7,65.1c0-0.5-0.1-1.1-0.4-1.5l-14.4-23.3l0,0l-0.1-0.2l0,0l-0.1-0.1l-0.1-0.1l-0.1-0.1l-0.1-0.1       l-0.1-0.1l-0.1-0.1l0,0L96.3,19.2c-0.4-0.3-0.9-0.4-1.5-0.4l-42,0.5l0,0h-0.1h-0.1h-0.1h-0.1h-0.1l-0.2,0.1H52l-0.2,0.1h-0.1       l-0.1,0.1l0,0L22.8,37l0,0l-0.1,0.1l-0.1,0.1l-0.1,0.1l-0.1,0.1l-0.1,0.1l-0.1,0.1l-0.1,0.1L22,37.8l0,0l0,0l-0.1,0.1V38       l-0.1,0.1v0.1v0.1v0.1v0.1v0.1v0.1v0.1v0.1V39v0.2l0,0c0,0.2,0.1,0.4,0.1,0.7l0.1,0.3l40.5,80.1v0.1l0.1,0.2l0.1,0.1l0.1,0.1       l0.1,0.1L63,121l0.1,0.1l0.1,0.1l0.2,0.1l0,0l0.1,0.1l0.1,0.1l0.2,0.1h0.1h0.2h0.1h0.3h0.1H65h0.1l0.3-0.1h0.1l0.3-0.1l0,0l0,0       l0.3-0.2l0,0l74.7-54C141.4,66.8,141.8,66,141.7,65.1z M52.8,24.8l26.3,17.3l-13.2,23L28.7,39.3L52.8,24.8z M64.2,70.1       l-1.7,39.4L30.9,47L64.2,70.1z M83.7,44.2h39.6l11.4,18.4L71.2,66L83.7,44.2z M94.1,23.9l22.5,15.2H83.9L61.2,24.2L94.1,23.9z        M69.2,71.2l62.1-3.3l-64,46.2L69.2,71.2z"/>
				</g>
			</g>
		</g>
		<g>
			<path class="st1" d="M182.9,49v28h-11.3V25l37.6,31.2v-28h11.3v52.1L182.9,49z"/>
			<path class="st1" d="M224.2,39.4V28.2h48.9v11.3L224.2,39.4L224.2,39.4z M235.5,58.2V77h-11.3V47h48.9v11.3L235.5,58.2     L235.5,58.2z"/>
			<path class="st1" d="M295.7,39.4h-18.8V28.2h48.9v11.3H307V77h-11.3L295.7,39.4L295.7,39.4z"/>
			<path class="st1" d="M378.4,77h-33.8V65.8h33.8c2.5,0,3.8-1.3,3.8-3.8s-1.3-3.8-3.8-3.8h-18.8c-10,0-15-5-15-15s5-15,15-15h33.8     v11.3h-33.8c-2.5,0-3.8,1.3-3.8,3.8s1.3,3.8,3.8,3.8h18.8c10,0,15,5,15,15C393.4,72,388.4,77,378.4,77z"/>
			<path class="st1" d="M408.5,58.2V77h-11.3V28.2h11.3V47h26.3V28.2H446V77h-11.3V58.2H408.5z"/>
			<path class="st1" d="M449.8,77V28.2h11.3V77H449.8z"/>
			<path class="st1" d="M476.1,65.8h37.6V77h-48.9V28.2h11.3V65.8z"/>
			<path class="st1" d="M528.8,65.8h37.6V77h-48.9V28.2h11.3L528.8,65.8L528.8,65.8z"/>
		</g>
		<g>
			<path class="st1" d="M176.4,100.7v12h-4.8V90.4l16.1,13.4v-12h4.8v22.3L176.4,100.7z"/>
			<path class="st1" d="M194.1,96.6v-4.8H215v4.8H194.1z M199,107.9h16.1v4.8h-20.9V99.8h20.9v4.8H199V107.9z"/>
			<path class="st1" d="M240.8,91.7L228,114l-12.9-22.3h5.6l7.3,12.6l7.3-12.6H240.8z"/>
			<path class="st1" d="M240.9,96.6v-4.8h20.9v4.8H240.9z M245.7,107.9h16.1v4.8h-20.9V99.8h20.9v4.8h-16.1V107.9z"/>
			<path class="st1" d="M277.9,96.6h-14.5v-4.8h14.5c4.3,0,6.4,2.1,6.4,6.4c0,4-1.8,6.1-5.5,6.4l7.3,8.1h-6.5l-7.2-8.1h-4.2v8.1     h-4.8V99.8h14.5c1.1,0,1.6-0.5,1.6-1.6S279,96.6,277.9,96.6z"/>
			<path class="st1" d="M297.3,100.7v12h-4.8V90.4l10.5,8.7l10.5-8.7v22.3h-4.8v-12l-5.6,4.7L297.3,100.7z"/>
			<path class="st1" d="M315,112.7v-21h4.8v20.9L315,112.7L315,112.7z"/>
			<path class="st1" d="M335.9,112.7h-14.5v-4.8h14.5c1.1,0,1.6-0.5,1.6-1.6s-0.5-1.6-1.6-1.6h-8.1c-4.3,0-6.4-2.1-6.4-6.4     s2.1-6.4,6.4-6.4h14.5v4.8h-14.5c-1.1,0-1.6,0.5-1.6,1.6s0.5,1.6,1.6,1.6h8.1c4.3,0,6.4,2.1,6.4,6.4S340.2,112.7,335.9,112.7z"/>
			<path class="st1" d="M358.5,112.7H344v-4.8h14.5c1.1,0,1.6-0.5,1.6-1.6s-0.5-1.6-1.6-1.6h-8.1c-4.3,0-6.4-2.1-6.4-6.4     s2.1-6.4,6.4-6.4h14.5v4.8h-14.5c-1.1,0-1.6,0.5-1.6,1.6s0.5,1.6,1.6,1.6h8.1c4.3,0,6.4,2.1,6.4,6.4S362.8,112.7,358.5,112.7z"/>
			<path class="st1" d="M397.1,112.7h-5.6l-7.3-12.6l-7.3,12.6h-5.6l12.9-22.3L397.1,112.7z"/>
			<path class="st1" d="M416.5,96.6h-12.9v-4.8h12.9c5.4,0,8.1,2.7,8.1,8.1v4.8c0,5.4-2.7,8.1-8.1,8.1h-12.9V99.9h4.8v8.1h8.1     c2.1,0,3.2-1.1,3.2-3.2V100C419.7,97.6,418.7,96.6,416.5,96.6z"/>
			<path class="st1" d="M440.7,96.6h-14.5v-4.8h14.5c4.3,0,6.4,2.1,6.4,6.4c0,4-1.8,6.1-5.5,6.4l7.3,8.1h-6.5l-7.2-8.1H431v8.1h-4.8     V99.8h14.5c1.1,0,1.6-0.5,1.6-1.6S441.8,96.6,440.7,96.6z"/>
			<path class="st1" d="M448.7,99.8c0-5.4,2.7-8.1,8.1-8.1h4.8c5.4,0,8.1,2.7,8.1,8.1v4.8c0,5.4-2.7,8.1-8.1,8.1h-4.8     c-5.4,0-8.1-2.7-8.1-8.1V99.8z M456.8,96.6c-2.1,0-3.2,1.1-3.2,3.2v4.8c0,2.1,1.1,3.2,3.2,3.2h4.8c2.1,0,3.2-1.1,3.2-3.2v-4.8     c0-2.1-1.1-3.2-3.2-3.2H456.8z"/>
			<path class="st1" d="M485.8,96.6h-14.5v-4.8h14.5c4.3,0,6.4,2.1,6.4,6.4s-2.1,6.4-6.4,6.4h-9.7v8.1h-4.8V99.8h14.5     c1.1,0,1.6-0.5,1.6-1.6S486.9,96.6,485.8,96.6z"/>
		</g>
	</g>
</g>
</svg>