<svg xmlns="http://www.w3.org/2000/svg" viewBox="0 0 725.48 329.93"><defs><style>.a{fill:#6411ff;}.b{fill:#051187;}</style></defs><path class="a" d="M170.29,627.54a8.86,8.86,0,0,1,3.11,7,12.43,12.43,0,0,1-.22,2.35,13.62,13.62,0,0,1-3.33,6.83A14.66,14.66,0,0,1,162.7,648l6.17,15.18H158.6l-5.73-15.34H150.5l-2.72,15.34h-9l6.77-38.34h15.67Q167.18,624.83,170.29,627.54ZM163.5,636a3.24,3.24,0,0,0-1.07-2.59,4.78,4.78,0,0,0-3.17-.91h-5.54l-1.62,9.2h5.54a5.9,5.9,0,0,0,3.9-1.2,5.68,5.68,0,0,0,1.85-3.4C163.46,636.54,163.5,636.18,163.5,636Z" transform="translate(-137.26 -335.03)"/><path class="a" d="M250.23,632.5l-1.32,7.67h12.61l-1.27,6.13H247.66L246,655.5h14.36L259,663.17H235.34l6.77-38.34H265.9l-1.36,7.67Z" transform="translate(-137.26 -335.03)"/><path class="a" d="M340,624.83l4.42,28.94L359,624.83h9.94l-20.37,38.34H336.84L330,624.83Z" transform="translate(-137.26 -335.03)"/><path class="a" d="M443.09,624.83l-6.77,38.34H427l6.77-38.34Z" transform="translate(-137.26 -335.03)"/><path class="a" d="M518.83,632.5l-1.32,7.67h12.61l-1.27,6.13H516.26l-1.64,9.2H529l-1.36,7.67H503.94l6.77-38.34H534.5l-1.36,7.67Z" transform="translate(-137.26 -335.03)"/><path class="a" d="M654.35,624.83l-16.76,38.34h-11.3L624.59,638l-10.75,25.18H602.53l-2.95-38.34h10l.6,27.91,11.74-27.91h10.32l1.64,27.74,10.43-27.74Z" transform="translate(-137.26 -335.03)"/><path class="a" d="M717.9,662.11a9.28,9.28,0,0,1-4.13-8.12,14.52,14.52,0,0,1,.11-1.56h10.28a4.31,4.31,0,0,0,1,3.47,4.88,4.88,0,0,0,3.7,1.27,5.78,5.78,0,0,0,3.55-1,3.28,3.28,0,0,0,1.3-2.78,3.53,3.53,0,0,0-1.64-3,28.1,28.1,0,0,0-5.12-2.6,43.28,43.28,0,0,1-5.45-2.63,12,12,0,0,1-3.67-3.38,8.85,8.85,0,0,1-1.56-5.37,11.59,11.59,0,0,1,2-6.93,12.87,12.87,0,0,1,5.61-4.51,20.33,20.33,0,0,1,8.2-1.55,19.64,19.64,0,0,1,7.39,1.3,11.15,11.15,0,0,1,5,3.75,10.74,10.74,0,0,1,1.73,7.08H735.72a3.77,3.77,0,0,0,.06-.7,3.38,3.38,0,0,0-1.13-2.63,4.47,4.47,0,0,0-3.09-1,5.37,5.37,0,0,0-3.38,1,3.3,3.3,0,0,0-1.3,2.75,3.52,3.52,0,0,0,1.62,2.92,30,30,0,0,0,5,2.74,53.52,53.52,0,0,1,5.58,2.89,12.54,12.54,0,0,1,3.72,3.55,9.26,9.26,0,0,1,1.56,5.46,11.21,11.21,0,0,1-1.9,6.41,12.63,12.63,0,0,1-5.49,4.42,20.51,20.51,0,0,1-8.38,1.59Q722,665,717.9,662.11Z" transform="translate(-137.26 -335.03)"/><path class="b" d="M384.31,592.63H303.54L241,463.1,218,592.63H137.26L182.74,335h80.77l62.22,131.71L349,335h80.77Z" transform="translate(-137.26 -335.03)"/><path class="b" d="M635.42,335l-11.34,64.4h-101l-6.12,35.27h72.57l-10.74,59.8H506l-17,96.6H408.36L453.57,335Z" transform="translate(-137.26 -335.03)"/><path class="b" d="M862.74,335,851.67,397.9H785.06L750.92,591.1H670.3l34.14-193.2H638.78L649.85,335Z" transform="translate(-137.26 -335.03)"/></svg>